# xmcd
#
# Track frame offsets: 
#        150
#        14563
#        29865
#        47574
#        60466
#        78420
#        89019
#        105097
#        125043
#        138517
#        154683
#        166206
#        187063
#        200217
#        220117
#        233247
#        244033
#        263314
#        279557
#
# Disc length: 3936 seconds
#
# Revision: 0
# Processed by: cddbd v1.4PL0 Copyright (c) Steve Scherf et al.
# Submitted via: ExactAudioCopy v0.95a4
#
DISCID=0e0f5e13
DTITLE=James Son Thomas - Hard Times
DYEAR=2003
DGENRE=Blues
TTITLE0=Good Morning School Girl
TTITLE1=Sugar Mama Blues
TTITLE2=Rollin' And Tumblin'
TTITLE3=Nelson Street Blues
TTITLE4=Standing At The Crossroads
TTITLE5=Bumble Bee
TTITLE6=Hard Times
TTITLE7=Big Fat Mama
TTITLE8=Two Trains Running
TTITLE9=Whiskey Headed Woman
TTITLE10=Bottle It Up And Go
TTITLE11=Ethel Mae
TTITLE12=Forty Four Miles
TTITLE13=Crawlin' Kingsnake
TTITLE14=Beefsteak Blues
TTITLE15=Mama Talk To Your Daughter
TTITLE16=It Hurts Me Too
TTITLE17=Cairo Blues
TTITLE18=Steel Guitar Rag
EXTD=
EXTT0=
EXTT1=
EXTT2=
EXTT3=
EXTT4=
EXTT5=
EXTT6=
EXTT7=
EXTT8=
EXTT9=
EXTT10=
EXTT11=
EXTT12=
EXTT13=
EXTT14=
EXTT15=
EXTT16=
EXTT17=
EXTT18=
PLAYORDER=
